<?xml version="1.0" encoding="UTF-8" standalone="no"?>
<!-- Created with Inkscape (http://www.inkscape.org/) -->

<svg
   xmlns:dc="http://purl.org/dc/elements/1.1/"
   xmlns:cc="http://creativecommons.org/ns#"
   xmlns:rdf="http://www.w3.org/1999/02/22-rdf-syntax-ns#"
   xmlns:svg="http://www.w3.org/2000/svg"
   xmlns="http://www.w3.org/2000/svg"
   xmlns:sodipodi="http://sodipodi.sourceforge.net/DTD/sodipodi-0.dtd"
   xmlns:inkscape="http://www.inkscape.org/namespaces/inkscape"
   width="16"
   height="16"
   viewBox="0 0 4.2333332 4.2333332"
   version="1.1"
   id="svg8"
   inkscape:version="0.92.4 (5da689c313, 2019-01-14)"
   sodipodi:docname="nmiconnotinprogress.svg">
  <defs
     id="defs2" />
  <sodipodi:namedview
     id="base"
     pagecolor="#ffffff"
     bordercolor="#666666"
     borderopacity="1.0"
     inkscape:pageopacity="0.0"
     inkscape:pageshadow="2"
     inkscape:zoom="53.9375"
     inkscape:cx="8"
     inkscape:cy="8"
     inkscape:document-units="px"
     inkscape:current-layer="layer1"
     showgrid="true"
     units="px"
     inkscape:window-width="1920"
     inkscape:window-height="1051"
     inkscape:window-x="1280"
     inkscape:window-y="29"
     inkscape:window-maximized="1">
    <inkscape:grid
       type="xygrid"
       id="grid815"
       empspacing="8" />
    <inkscape:grid
       type="xygrid"
       id="grid817"
       spacingx="0.13229166"
       spacingy="0.13229166"
       empspacing="2"
       empcolor="#9f00ff"
       empopacity="0.25098039"
       color="#da00ff"
       opacity="0.1254902" />
  </sodipodi:namedview>
  <metadata
     id="metadata5">
    <rdf:RDF>
      <cc:Work
         rdf:about="">
        <dc:format>image/svg+xml</dc:format>
        <dc:type
           rdf:resource="http://purl.org/dc/dcmitype/StillImage" />
        <dc:title></dc:title>
      </cc:Work>
    </rdf:RDF>
  </metadata>
  <g
     inkscape:label="Layer 1"
     inkscape:groupmode="layer"
     id="layer1"
     transform="translate(0,-292.76667)">
    <rect
       style="opacity:1;fill:#e1e1e1;fill-opacity:1;fill-rule:nonzero;stroke:none;stroke-width:0.26458332;stroke-linecap:butt;stroke-linejoin:round;stroke-miterlimit:4;stroke-dasharray:none;stroke-dashoffset:0;stroke-opacity:1;paint-order:stroke markers fill"
       id="rect1368"
       width="3.7041667"
       height="3.7041667"
       x="0.26458332"
       y="293.03125"
       ry="0.26458332" />
    <circle
       style="opacity:1;fill:#aaaaaa;fill-opacity:1;fill-rule:nonzero;stroke:none;stroke-width:6;stroke-linecap:round;stroke-linejoin:round;stroke-miterlimit:4;stroke-dasharray:none;stroke-dashoffset:0;stroke-opacity:1;paint-order:markers stroke fill"
       id="path840"
       cx="1.3229166"
       cy="295.94168"
       r="0.26458332" />
    <circle
       style="opacity:1;fill:#aaaaaa;fill-opacity:1;fill-rule:nonzero;stroke:none;stroke-width:6;stroke-linecap:round;stroke-linejoin:round;stroke-miterlimit:4;stroke-dasharray:none;stroke-dashoffset:0;stroke-opacity:1;paint-order:markers stroke fill"
       id="path842"
       cx="2.9104166"
       cy="295.94168"
       r="0.26458332" />
    <path
       style="fill:#aaaaaa;fill-opacity:1;fill-rule:evenodd;stroke:none;stroke-width:1px;stroke-linecap:butt;stroke-linejoin:miter;stroke-opacity:1"
       d="M 12 3 L 11.5 5 L 3 5 L 4 10 L 12 10 L 13 4 L 14 4 L 14 3 L 12 3 z M 4.5 6 L 11.5 6 C 11.777 6 12 6.223 12 6.5 C 12 6.777 11.777 7 11.5 7 L 4.5 7 C 4.223 7 4 6.777 4 6.5 C 4 6.223 4.223 6 4.5 6 z M 5 8 L 11 8 C 11.277 8 11.5 8.223 11.5 8.5 C 11.5 8.777 11.277 9 11 9 L 5 9 C 4.723 9 4.5 8.777 4.5 8.5 C 4.5 8.223 4.723 8 5 8 z "
       transform="matrix(0.26458333,0,0,0.26458333,0,292.76667)"
       id="path844" />
  </g>
</svg>
