<?xml version="1.0" encoding="UTF-8" standalone="no"?>
<!-- Created with Inkscape (http://www.inkscape.org/) -->

<svg
   xmlns:dc="http://purl.org/dc/elements/1.1/"
   xmlns:cc="http://creativecommons.org/ns#"
   xmlns:rdf="http://www.w3.org/1999/02/22-rdf-syntax-ns#"
   xmlns:svg="http://www.w3.org/2000/svg"
   xmlns="http://www.w3.org/2000/svg"
   xmlns:xlink="http://www.w3.org/1999/xlink"
   xmlns:sodipodi="http://sodipodi.sourceforge.net/DTD/sodipodi-0.dtd"
   xmlns:inkscape="http://www.inkscape.org/namespaces/inkscape"
   width="16"
   height="16"
   viewBox="0 0 4.2333332 4.2333332"
   version="1.1"
   id="svg8"
   inkscape:version="0.92.3 (2405546, 2018-03-11)"
   sodipodi:docname="nmicon_p2.svg">
  <defs
     id="defs2">
    <linearGradient
       inkscape:collect="always"
       xlink:href="#linearGradient2711"
       id="linearGradient2713"
       x1="3"
       y1="9.5"
       x2="13"
       y2="9.5"
       gradientUnits="userSpaceOnUse"
       gradientTransform="matrix(0.26458333,0,0,0.26458333,0,292.76667)" />
    <linearGradient
       inkscape:collect="always"
       id="linearGradient2711">
      <stop
         style="stop-color:#e3e000;stop-opacity:1"
         offset="0"
         id="stop2707" />
      <stop
         id="stop2715"
         offset="0.19999999"
         style="stop-color:#ffe404;stop-opacity:1" />
      <stop
         style="stop-color:#ac8800;stop-opacity:1"
         offset="1"
         id="stop2709" />
    </linearGradient>
    <linearGradient
       inkscape:collect="always"
       xlink:href="#linearGradient2711"
       id="linearGradient2818"
       gradientUnits="userSpaceOnUse"
       gradientTransform="matrix(0.26458333,0,0,0.26458333,0,292.76667)"
       x1="3"
       y1="9.5"
       x2="13"
       y2="9.5" />
    <linearGradient
       inkscape:collect="always"
       xlink:href="#linearGradient2711"
       id="linearGradient2828"
       gradientUnits="userSpaceOnUse"
       gradientTransform="matrix(0.26458333,0,0,0.26458333,0,292.76667)"
       x1="3"
       y1="9.5"
       x2="13"
       y2="9.5" />
  </defs>
  <sodipodi:namedview
     id="base"
     pagecolor="#ffffff"
     bordercolor="#666666"
     borderopacity="1.0"
     inkscape:pageopacity="0.0"
     inkscape:pageshadow="2"
     inkscape:zoom="53.94"
     inkscape:cx="4.5515643"
     inkscape:cy="8"
     inkscape:document-units="px"
     inkscape:current-layer="layer1"
     showgrid="true"
     units="px"
     inkscape:window-width="1920"
     inkscape:window-height="1051"
     inkscape:window-x="1280"
     inkscape:window-y="29"
     inkscape:window-maximized="1"
     inkscape:snap-bbox="true"
     inkscape:bbox-paths="true"
     inkscape:bbox-nodes="true"
     inkscape:snap-bbox-edge-midpoints="true"
     inkscape:snap-bbox-midpoints="true">
    <inkscape:grid
       type="xygrid"
       id="grid815"
       empspacing="8" />
    <inkscape:grid
       type="xygrid"
       id="grid817"
       spacingx="0.13229166"
       spacingy="0.13229166"
       empspacing="2"
       empcolor="#9f00ff"
       empopacity="0.25098039"
       color="#da00ff"
       opacity="0.1254902" />
  </sodipodi:namedview>
  <metadata
     id="metadata5">
    <rdf:RDF>
      <cc:Work
         rdf:about="">
        <dc:format>image/svg+xml</dc:format>
        <dc:type
           rdf:resource="http://purl.org/dc/dcmitype/StillImage" />
        <dc:title />
      </cc:Work>
    </rdf:RDF>
  </metadata>
  <g
     inkscape:label="Layer 1"
     inkscape:groupmode="layer"
     id="layer1"
     transform="translate(0,-292.76667)">
    <rect
       style="opacity:1;fill:#d2d2d2;fill-opacity:1;fill-rule:nonzero;stroke:none;stroke-width:0.26458332;stroke-linecap:butt;stroke-linejoin:round;stroke-miterlimit:4;stroke-dasharray:none;stroke-dashoffset:0;stroke-opacity:1;paint-order:stroke markers fill"
       id="rect1368"
       width="3.7041667"
       height="3.7041667"
       x="0.26458332"
       y="293.03125"
       ry="0.26458332" />
    <g
       id="g2737"
       transform="translate(-1.6393604e-8,0.79376655)">
      <path
         style="opacity:1;fill:#e3e000;fill-opacity:1;fill-rule:nonzero;stroke:#555555;stroke-width:1.99999996;stroke-linecap:butt;stroke-linejoin:round;stroke-miterlimit:4;stroke-dasharray:none;stroke-dashoffset:0;stroke-opacity:1;paint-order:markers stroke fill"
         d="M 8 6 A 4.9999999 0.99999998 0 0 0 3 7 L 3 9 L 3 11 L 3 13 A 4.9999999 0.99999998 0 0 0 8 14 A 4.9999999 0.99999998 0 0 0 13 13 L 13 11 L 13 9 L 13 7 A 4.9999999 0.99999998 0 0 0 8 6 z "
         transform="matrix(0.26458333,0,0,0.26458333,1.6393604e-8,291.9729)"
         id="path2889" />
      <path
         inkscape:connector-curvature="0"
         id="path2721"
         d="m 2.1166666,294.61874 a 1.3229166,0.26458332 0 0 0 -1.32291661,0.26458 v 0.52917 a 1.3229166,0.26458332 0 0 0 1.32291661,0.26458 1.3229166,0.26458332 0 0 0 1.3229167,-0.26458 v -0.52917 a 1.3229166,0.26458332 0 0 0 -1.3229167,-0.26458 z"
         style="opacity:1;fill:#e3e000;fill-opacity:1;fill-rule:nonzero;stroke:#130d00;stroke-width:0.13229166;stroke-linecap:butt;stroke-linejoin:round;stroke-miterlimit:4;stroke-dasharray:none;stroke-dashoffset:0;stroke-opacity:1;paint-order:markers stroke fill" />
      <path
         id="ellipse2702"
         d="m 0.79374999,294.88334 v 0.52916 a 1.3229166,0.26458332 0 0 0 1.32291661,0.26459 1.3229166,0.26458332 0 0 0 1.3229167,-0.26459 v -0.52916 z"
         style="opacity:1;fill:url(#linearGradient2713);fill-opacity:1;fill-rule:nonzero;stroke:none;stroke-width:0.13229166;stroke-linecap:butt;stroke-linejoin:round;stroke-miterlimit:4;stroke-dasharray:none;stroke-dashoffset:0;stroke-opacity:1;paint-order:markers fill stroke"
         inkscape:connector-curvature="0" />
      <ellipse
         ry="0.26458332"
         rx="1.3229166"
         cy="294.88333"
         cx="2.1166666"
         id="path2700"
         style="opacity:1;fill:#fffb04;fill-opacity:1;fill-rule:nonzero;stroke:none;stroke-width:0.13229166;stroke-linecap:butt;stroke-linejoin:round;stroke-miterlimit:4;stroke-dasharray:none;stroke-dashoffset:0;stroke-opacity:1;paint-order:markers fill stroke" />
    </g>
    <g
       transform="translate(-1.6393604e-8,0.2645999)"
       id="g2816">
      <path
         style="opacity:1;fill:#e3e000;fill-opacity:1;fill-rule:nonzero;stroke:#160e00;stroke-width:0.13229166;stroke-linecap:butt;stroke-linejoin:round;stroke-miterlimit:4;stroke-dasharray:none;stroke-dashoffset:0;stroke-opacity:1;paint-order:markers stroke fill"
         d="m 2.1166666,294.61874 a 1.3229166,0.26458332 0 0 0 -1.32291661,0.26458 v 0.52917 a 1.3229166,0.26458332 0 0 0 1.32291661,0.26458 1.3229166,0.26458332 0 0 0 1.3229167,-0.26458 v -0.52917 a 1.3229166,0.26458332 0 0 0 -1.3229167,-0.26458 z"
         id="path2810"
         inkscape:connector-curvature="0" />
      <path
         inkscape:connector-curvature="0"
         style="opacity:1;fill:url(#linearGradient2818);fill-opacity:1;fill-rule:nonzero;stroke:none;stroke-width:0.13229166;stroke-linecap:butt;stroke-linejoin:round;stroke-miterlimit:4;stroke-dasharray:none;stroke-dashoffset:0;stroke-opacity:1;paint-order:markers fill stroke"
         d="m 0.79374999,294.88334 v 0.52916 a 1.3229166,0.26458332 0 0 0 1.32291661,0.26459 1.3229166,0.26458332 0 0 0 1.3229167,-0.26459 v -0.52916 z"
         id="path2812" />
      <ellipse
         style="opacity:1;fill:#fffb04;fill-opacity:1;fill-rule:nonzero;stroke:none;stroke-width:0.13229166;stroke-linecap:butt;stroke-linejoin:round;stroke-miterlimit:4;stroke-dasharray:none;stroke-dashoffset:0;stroke-opacity:1;paint-order:markers fill stroke"
         id="ellipse2814"
         cx="2.1166666"
         cy="294.88333"
         rx="1.3229166"
         ry="0.26458332" />
    </g>
    <g
       id="g2826"
       transform="translate(-1.6393604e-8,-0.26456675)">
      <path
         inkscape:connector-curvature="0"
         id="path2820"
         d="m 2.1166666,294.61874 a 1.3229166,0.26458332 0 0 0 -1.32291661,0.26458 v 0.52917 a 1.3229166,0.26458332 0 0 0 1.32291661,0.26458 1.3229166,0.26458332 0 0 0 1.3229167,-0.26458 v -0.52917 a 1.3229166,0.26458332 0 0 0 -1.3229167,-0.26458 z"
         style="opacity:1;fill:#e3e000;fill-opacity:1;fill-rule:nonzero;stroke:#181000;stroke-width:0.13229166;stroke-linecap:butt;stroke-linejoin:round;stroke-miterlimit:4;stroke-dasharray:none;stroke-dashoffset:0;stroke-opacity:1;paint-order:markers stroke fill" />
      <path
         id="path2822"
         d="m 0.79374999,294.88334 v 0.52916 a 1.3229166,0.26458332 0 0 0 1.32291661,0.26459 1.3229166,0.26458332 0 0 0 1.3229167,-0.26459 v -0.52916 z"
         style="opacity:1;fill:url(#linearGradient2828);fill-opacity:1;fill-rule:nonzero;stroke:none;stroke-width:0.13229166;stroke-linecap:butt;stroke-linejoin:round;stroke-miterlimit:4;stroke-dasharray:none;stroke-dashoffset:0;stroke-opacity:1;paint-order:markers fill stroke"
         inkscape:connector-curvature="0" />
      <ellipse
         ry="0.26458332"
         rx="1.3229166"
         cy="294.88333"
         cx="2.1166666"
         id="ellipse2824"
         style="opacity:1;fill:#fffb04;fill-opacity:1;fill-rule:nonzero;stroke:none;stroke-width:0.13229166;stroke-linecap:butt;stroke-linejoin:round;stroke-miterlimit:4;stroke-dasharray:none;stroke-dashoffset:0;stroke-opacity:1;paint-order:markers fill stroke" />
    </g>
  </g>
</svg>
