<?xml version="1.0" encoding="UTF-8" standalone="no"?>
<!-- Created with Inkscape (http://www.inkscape.org/) -->

<svg
   xmlns:dc="http://purl.org/dc/elements/1.1/"
   xmlns:cc="http://creativecommons.org/ns#"
   xmlns:rdf="http://www.w3.org/1999/02/22-rdf-syntax-ns#"
   xmlns:svg="http://www.w3.org/2000/svg"
   xmlns="http://www.w3.org/2000/svg"
   xmlns:sodipodi="http://sodipodi.sourceforge.net/DTD/sodipodi-0.dtd"
   xmlns:inkscape="http://www.inkscape.org/namespaces/inkscape"
   width="32"
   height="32"
   viewBox="0 0 8.4666665 8.4666669"
   version="1.1"
   id="svg8"
   inkscape:version="0.92.3 (2405546, 2018-03-11)"
   sodipodi:docname="wishcalc.svg">
  <defs
     id="defs2" />
  <sodipodi:namedview
     id="base"
     pagecolor="#ffffff"
     bordercolor="#666666"
     borderopacity="1.0"
     inkscape:pageopacity="0.0"
     inkscape:pageshadow="2"
     inkscape:zoom="26.96875"
     inkscape:cx="16"
     inkscape:cy="16"
     inkscape:document-units="mm"
     inkscape:current-layer="layer1"
     showgrid="true"
     units="px"
     inkscape:snap-bbox="true"
     inkscape:bbox-paths="true"
     inkscape:bbox-nodes="true"
     inkscape:snap-bbox-edge-midpoints="true"
     inkscape:snap-bbox-midpoints="true"
     inkscape:snap-object-midpoints="true"
     inkscape:snap-center="true"
     inkscape:window-width="1920"
     inkscape:window-height="1051"
     inkscape:window-x="1280"
     inkscape:window-y="29"
     inkscape:window-maximized="1">
    <inkscape:grid
       type="xygrid"
       id="grid815"
       empspacing="8" />
    <inkscape:grid
       type="xygrid"
       id="grid858"
       spacingx="0.13229167"
       spacingy="0.13229167"
       empspacing="2" />
  </sodipodi:namedview>
  <metadata
     id="metadata5">
    <rdf:RDF>
      <cc:Work
         rdf:about="">
        <dc:format>image/svg+xml</dc:format>
        <dc:type
           rdf:resource="http://purl.org/dc/dcmitype/StillImage" />
        <dc:title />
      </cc:Work>
    </rdf:RDF>
  </metadata>
  <g
     inkscape:label="Layer 1"
     inkscape:groupmode="layer"
     id="layer1"
     transform="translate(0,-288.53332)">
    <path
       inkscape:transform-center-y="-0.63732547"
       inkscape:transform-center-x="0.12998043"
       sodipodi:nodetypes="ccc"
       inkscape:connector-curvature="0"
       id="path834"
       d="m 1.6080301,292.043 c -0.3482976,-0.73435 -0.3426719,-1.17054 -0.00681,-1.6576 0.3900774,0.36612 0.5497053,0.89541 0.7020766,1.27465"
       style="fill:#b7b7b7;fill-opacity:1;fill-rule:evenodd;stroke:#000000;stroke-width:0.26458332;stroke-linecap:butt;stroke-linejoin:round;stroke-miterlimit:4;stroke-dasharray:none;stroke-opacity:1;paint-order:stroke markers fill" />
    <path
       style="fill:#b7b7b7;fill-opacity:1;fill-rule:evenodd;stroke:#000000;stroke-width:0.26458332;stroke-linecap:butt;stroke-linejoin:round;stroke-miterlimit:4;stroke-dasharray:none;stroke-opacity:1;paint-order:stroke markers fill"
       d="m 7.4083335,292.76665 c 0,0 0.5119976,-0.0389 0.5291664,-0.26458 0.1250869,-0.24036 -0.2645833,-0.52917 -0.2645833,-0.52917 0,0 0.534072,0.17844 0.5291666,0.52917 -0.00981,0.44394 -0.7937497,0.52917 -0.7937497,0.52917"
       id="path870"
       inkscape:connector-curvature="0"
       sodipodi:nodetypes="ccccc" />
    <rect
       style="opacity:1;fill:#b7b7b7;fill-opacity:1;fill-rule:nonzero;stroke:#000000;stroke-width:0.26458332;stroke-linecap:butt;stroke-linejoin:round;stroke-miterlimit:4;stroke-dasharray:none;stroke-dashoffset:0;stroke-opacity:1;paint-order:stroke markers fill"
       id="rect849"
       width="0.52916664"
       height="1.3229166"
       x="141.81004"
       y="258.51605"
       ry="0.26458332"
       inkscape:transform-center-y="0.34369379"
       transform="matrix(-0.8660254,0.5,0.5,0.8660254,0,0)"
       inkscape:transform-center-x="-0.19843572" />
    <rect
       inkscape:transform-center-x="0.19842975"
       transform="rotate(30)"
       inkscape:transform-center-y="0.34368602"
       ry="0.26458332"
       y="254.28268"
       x="149.14246"
       height="1.3229166"
       width="0.52916664"
       id="rect847"
       style="opacity:1;fill:#b7b7b7;fill-opacity:1;fill-rule:nonzero;stroke:#000000;stroke-width:0.26458332;stroke-linecap:butt;stroke-linejoin:round;stroke-miterlimit:4;stroke-dasharray:none;stroke-dashoffset:0;stroke-opacity:1;paint-order:stroke markers fill" />
    <path
       style="opacity:1;fill:#b7b7b7;fill-opacity:1;fill-rule:nonzero;stroke:#000000;stroke-width:1.00000001;stroke-linecap:butt;stroke-linejoin:round;stroke-miterlimit:4;stroke-dasharray:none;stroke-dashoffset:0;stroke-opacity:1;paint-order:stroke fill markers"
       d="M 16 6 A 11.999999 11.5 0 0 0 4.1152344 16 L 2 16 L 2 22 L 4.9707031 22 A 11.999999 11.5 0 0 0 16 29 A 11.999999 11.5 0 0 0 28 17.5 A 11.999999 11.5 0 0 0 16 6 z "
       transform="matrix(0.26458333,0,0,0.26458333,0,288.53332)"
       id="path824" />
    <ellipse
       style="opacity:1;fill:#cca2a2;fill-opacity:1;fill-rule:nonzero;stroke:#000000;stroke-width:0.26458333;stroke-linecap:butt;stroke-linejoin:round;stroke-miterlimit:4;stroke-dasharray:none;stroke-dashoffset:0;stroke-opacity:1;paint-order:stroke fill markers"
       id="path828"
       cx="0.52916664"
       cy="293.56039"
       rx="0.26458332"
       ry="0.79374999" />
    <rect
       style="opacity:1;fill:#b7b7b7;fill-opacity:1;fill-rule:nonzero;stroke:#000000;stroke-width:0.26458332;stroke-linecap:butt;stroke-linejoin:round;stroke-miterlimit:4;stroke-dasharray:none;stroke-dashoffset:0;stroke-opacity:1;paint-order:stroke markers fill"
       id="rect845"
       width="0.52916664"
       height="1.3229166"
       x="78.749474"
       y="284.39716"
       ry="0.26458332"
       inkscape:transform-center-y="0.38333344"
       transform="rotate(15)"
       inkscape:transform-center-x="0.10271333" />
    <rect
       inkscape:transform-center-x="-0.10271948"
       transform="matrix(-0.96592583,0.25881905,0.25881905,0.96592583,0,0)"
       inkscape:transform-center-y="0.38334836"
       ry="0.26458332"
       y="286.58853"
       x="70.571281"
       height="1.3229166"
       width="0.52916664"
       id="rect851"
       style="opacity:1;fill:#b7b7b7;fill-opacity:1;fill-rule:nonzero;stroke:#000000;stroke-width:0.26458332;stroke-linecap:butt;stroke-linejoin:round;stroke-miterlimit:4;stroke-dasharray:none;stroke-dashoffset:0;stroke-opacity:1;paint-order:stroke markers fill" />
    <ellipse
       style="opacity:1;fill:#000000;fill-opacity:1;fill-rule:nonzero;stroke:none;stroke-width:0.74835086;stroke-linecap:butt;stroke-linejoin:round;stroke-miterlimit:4;stroke-dasharray:none;stroke-dashoffset:0;stroke-opacity:1;paint-order:stroke markers fill"
       id="path856"
       cx="0.39687502"
       cy="293.56039"
       rx="0.13229164"
       ry="0.26458076" />
    <ellipse
       cy="293.56039"
       cx="0.66145837"
       id="circle860"
       style="opacity:1;fill:#000000;fill-opacity:1;fill-rule:nonzero;stroke:none;stroke-width:0.74835086;stroke-linecap:butt;stroke-linejoin:round;stroke-miterlimit:4;stroke-dasharray:none;stroke-dashoffset:0;stroke-opacity:1;paint-order:stroke markers fill"
       rx="0.13229163"
       ry="0.26458073" />
    <ellipse
       style="opacity:1;fill:#ff0606;fill-opacity:1;fill-rule:nonzero;stroke:#000000;stroke-width:0.265;stroke-linecap:butt;stroke-linejoin:round;stroke-miterlimit:4;stroke-dasharray:none;stroke-dashoffset:0;stroke-opacity:1;paint-order:stroke markers fill"
       id="path862"
       cx="1.8520833"
       cy="292.50208"
       rx="0.26458335"
       ry="0.26458329" />
    <path
       style="fill:#000000;fill-opacity:1;fill-rule:evenodd;stroke:none;stroke-width:0.26458332px;stroke-linecap:butt;stroke-linejoin:miter;stroke-opacity:1"
       d="m 3.0427084,290.64999 0.1322917,0.52916 c 0,0 0.5291668,-0.26458 1.0583333,-0.26458 0.5291665,0 1.0583333,0.26458 1.0583333,0.26458 l 0.1322916,-0.52916 c 0,0 -0.5291668,-0.26457 -1.190625,-0.26458 -0.6614582,-10e-6 -1.1906249,0.26458 -1.1906249,0.26458 z"
       id="path868"
       inkscape:connector-curvature="0"
       sodipodi:nodetypes="cczcczc" />
    <path
       style="fill:#b7b7b7;fill-opacity:1;fill-rule:evenodd;stroke:#000000;stroke-width:0.26458332;stroke-linecap:butt;stroke-linejoin:round;stroke-miterlimit:4;stroke-dasharray:none;stroke-opacity:1;paint-order:stroke markers fill"
       d="m 1.9983593,291.81274 c -0.1659811,-0.79563 -0.058015,-1.21829 0.3828907,-1.61278 0.2931211,0.44754 0.3239038,0.99951 0.3828908,1.40394"
       id="path864"
       inkscape:connector-curvature="0"
       sodipodi:nodetypes="ccc"
       inkscape:transform-center-x="0.036929814"
       inkscape:transform-center-y="-0.70197002" />
    <g
       id="g852"
       transform="matrix(1.4583442,0,0,1.4583442,-4.0845641,-134.03908)"
       style="stroke-width:0.15875;stroke-miterlimit:4;stroke-dasharray:none">
      <circle
         r="0.66145831"
         cy="294.22186"
         cx="5.6885414"
         id="path840"
         style="opacity:1;vector-effect:none;fill:#f2de00;fill-opacity:1;stroke:#000000;stroke-width:0.15875;stroke-linecap:round;stroke-linejoin:round;stroke-miterlimit:4;stroke-dasharray:none;stroke-dashoffset:0;stroke-opacity:1;paint-order:stroke markers fill" />
      <g
         transform="translate(2.5008412,2.1452328)"
         id="text844"
         style="font-style:normal;font-variant:normal;font-weight:normal;font-stretch:normal;font-size:1.41111112px;line-height:125%;font-family:Inconsolata;-inkscape-font-specification:Inconsolata;text-align:center;writing-mode:lr-tb;text-anchor:middle;opacity:1;vector-effect:none;fill:#f2de00;fill-opacity:1;stroke:#000000;stroke-width:0.15875;stroke-linecap:round;stroke-linejoin:round;stroke-miterlimit:4;stroke-dasharray:none;stroke-dashoffset:0;stroke-opacity:1;paint-order:stroke markers fill"
         aria-label="$">
        <path
           inkscape:connector-curvature="0"
           id="path846"
           style="fill:#8c6700;fill-opacity:1;stroke:none;stroke-width:0.19388416;stroke-miterlimit:4;stroke-dasharray:none;paint-order:stroke markers fill"
           d="m 3.144615,291.45598 v 0.10344 c -0.1585541,0.0206 -0.2671293,0.12578 -0.2671293,0.24987 0,0.0621 0.027575,0.15855 0.1723415,0.22749 0.031022,0.0155 0.063766,0.0276 0.094788,0.0379 v 0.37744 c -0.089618,-0.009 -0.1654479,-0.0533 -0.2137035,-0.10518 -0.00689,-0.008 -0.00689,-0.01 -0.00516,-0.0189 0,-10e-4 0,-0.0122 -0.00863,-0.0156 l -0.074107,0.10172 c 0.077554,0.0844 0.182682,0.13099 0.3015977,0.13788 v 0.10517 h 0.1016805 v -0.10858 c 0.1947459,-0.0242 0.2860869,-0.16028 0.2860869,-0.28437 0,-0.15683 -0.1361498,-0.21541 -0.1723415,-0.23093 -0.036192,-0.0156 -0.074107,-0.0293 -0.113745,-0.0431 v -0.33091 c 0.074107,0.01 0.1275328,0.0431 0.1637245,0.0862 0.00516,0.008 0.00689,0.009 0.00689,0.01 0.00344,0.005 0.00172,0.01 0.00172,0.0156 0,0.008 0.00516,0.01 0.00863,0.0122 l 0.074107,-0.0948 c -0.062043,-0.0758 -0.1533838,-0.12066 -0.2550654,-0.13096 v -0.0654 c 0,-0.0172 0.012067,-0.0172 0.012067,-0.031 0,-0.001 -0.00172,-0.003 -0.00172,-0.005 z m 0.1016805,0.64974 c 0.034468,0.01 0.06549,0.0223 0.087895,0.0344 0.072384,0.0397 0.086171,0.0965 0.086171,0.13271 0,0.0775 -0.063766,0.15511 -0.174065,0.17579 z M 3.144615,291.95579 c -0.022404,-0.009 -0.041363,-0.0189 -0.06032,-0.0294 -0.07583,-0.0431 -0.093065,-0.0948 -0.093065,-0.13271 0,-0.0604 0.044808,-0.12409 0.1533839,-0.13615 z" />
      </g>
    </g>
  </g>
</svg>
