<?xml version="1.0" encoding="UTF-8" standalone="no"?>
<!-- Created with Inkscape (http://www.inkscape.org/) -->

<svg
   xmlns:dc="http://purl.org/dc/elements/1.1/"
   xmlns:cc="http://creativecommons.org/ns#"
   xmlns:rdf="http://www.w3.org/1999/02/22-rdf-syntax-ns#"
   xmlns:svg="http://www.w3.org/2000/svg"
   xmlns="http://www.w3.org/2000/svg"
   xmlns:sodipodi="http://sodipodi.sourceforge.net/DTD/sodipodi-0.dtd"
   xmlns:inkscape="http://www.inkscape.org/namespaces/inkscape"
   width="16"
   height="16"
   viewBox="0 0 4.2333332 4.2333332"
   version="1.1"
   id="svg8"
   inkscape:version="0.92.4 (5da689c313, 2019-01-14)"
   sodipodi:docname="nmiconchildrenincart.svg">
  <defs
     id="defs2" />
  <sodipodi:namedview
     id="base"
     pagecolor="#ffffff"
     bordercolor="#666666"
     borderopacity="1.0"
     inkscape:pageopacity="0.0"
     inkscape:pageshadow="2"
     inkscape:zoom="53.9375"
     inkscape:cx="4.8939803"
     inkscape:cy="9.9837775"
     inkscape:document-units="px"
     inkscape:current-layer="layer1"
     showgrid="true"
     units="px"
     inkscape:window-width="1920"
     inkscape:window-height="1051"
     inkscape:window-x="1280"
     inkscape:window-y="29"
     inkscape:window-maximized="1">
    <inkscape:grid
       type="xygrid"
       id="grid815"
       empspacing="8" />
    <inkscape:grid
       type="xygrid"
       id="grid817"
       spacingx="0.13229166"
       spacingy="0.13229166"
       empspacing="2"
       empcolor="#9f00ff"
       empopacity="0.25098039"
       color="#da00ff"
       opacity="0.1254902" />
  </sodipodi:namedview>
  <metadata
     id="metadata5">
    <rdf:RDF>
      <cc:Work
         rdf:about="">
        <dc:format>image/svg+xml</dc:format>
        <dc:type
           rdf:resource="http://purl.org/dc/dcmitype/StillImage" />
        <dc:title />
      </cc:Work>
    </rdf:RDF>
  </metadata>
  <g
     inkscape:label="Layer 1"
     inkscape:groupmode="layer"
     id="layer1"
     transform="translate(0,-292.76667)">
    <path
       sodipodi:nodetypes="cccccccccssssssssssssssscscsscscs"
       inkscape:connector-curvature="0"
       id="path821"
       d="m 3.4395832,294.08958 -0.1322917,0.52916 H 1.8520832 l 0.2645833,1.32292 h 1.3229167 l 0.2645833,-1.5875 h 0.2645833 v -0.26458 z m -1.190625,0.79375 h 1.0583333 c 0.07329,0 0.1322917,0.059 0.1322917,0.13229 0,0.0733 -0.059002,0.13229 -0.1322917,0.13229 H 2.2489582 c -0.07329,0 -0.1322917,-0.059 -0.1322917,-0.13229 0,-0.0733 0.059002,-0.13229 0.1322917,-0.13229 z m 0.1322916,0.52916 h 0.79375 c 0.07329,0 0.1322917,0.059 0.1322917,0.13229 0,0.0733 -0.059002,0.1323 -0.1322917,0.1323 h -0.79375 c -0.07329,0 -0.1322916,-0.059 -0.1322916,-0.1323 0,-0.0733 0.059002,-0.13229 0.1322916,-0.13229 z m 0,0.79375 c -0.1461279,0 -0.264587,0.11846 -0.2645833,0.26459 1.8e-6,0.14612 0.1184593,0.26458 0.2645833,0.26458 0.1461241,0 0.2645816,-0.11846 0.2645834,-0.26458 3.7e-6,-0.14613 -0.1184554,-0.26459 -0.2645834,-0.26459 z m 0.79375,0 c -0.1461279,0 -0.264587,0.11846 -0.2645833,0.26459 1.9e-6,0.14612 0.1184593,0.26458 0.2645833,0.26458 0.1461241,0 0.2645816,-0.11846 0.2645834,-0.26458 3.7e-6,-0.14613 -0.1184554,-0.26459 -0.2645834,-0.26459 z"
       style="opacity:1;fill:#000aac;fill-opacity:1;fill-rule:nonzero;stroke:#e1e1e1;stroke-width:0.52916665;stroke-linecap:round;stroke-linejoin:miter;stroke-miterlimit:4;stroke-dasharray:none;stroke-dashoffset:0;stroke-opacity:1;paint-order:markers stroke fill" />
    <path
       style="opacity:1;fill:#000aac;fill-opacity:1;fill-rule:nonzero;stroke:none;stroke-width:0.52916665;stroke-linecap:round;stroke-linejoin:miter;stroke-miterlimit:4;stroke-dasharray:none;stroke-dashoffset:0;stroke-opacity:1;paint-order:markers stroke fill"
       d="m 3.4395832,294.08958 -0.1322917,0.52916 H 1.8520832 l 0.2645833,1.32292 h 1.3229167 l 0.2645833,-1.5875 h 0.2645833 v -0.26458 z m -1.190625,0.79375 h 1.0583333 c 0.07329,0 0.1322917,0.059 0.1322917,0.13229 0,0.0733 -0.059002,0.13229 -0.1322917,0.13229 H 2.2489582 c -0.07329,0 -0.1322917,-0.059 -0.1322917,-0.13229 0,-0.0733 0.059002,-0.13229 0.1322917,-0.13229 z m 0.1322916,0.52916 h 0.79375 c 0.07329,0 0.1322917,0.059 0.1322917,0.13229 0,0.0733 -0.059002,0.1323 -0.1322917,0.1323 h -0.79375 c -0.07329,0 -0.1322916,-0.059 -0.1322916,-0.1323 0,-0.0733 0.059002,-0.13229 0.1322916,-0.13229 z m 0,0.79375 c -0.1461279,0 -0.264587,0.11846 -0.2645833,0.26459 1.8e-6,0.14612 0.1184593,0.26458 0.2645833,0.26458 0.1461241,0 0.2645816,-0.11846 0.2645834,-0.26458 3.7e-6,-0.14613 -0.1184554,-0.26459 -0.2645834,-0.26459 z m 0.79375,0 c -0.1461279,0 -0.264587,0.11846 -0.2645833,0.26459 1.9e-6,0.14612 0.1184593,0.26458 0.2645833,0.26458 0.1461241,0 0.2645816,-0.11846 0.2645834,-0.26458 3.7e-6,-0.14613 -0.1184554,-0.26459 -0.2645834,-0.26459 z"
       id="path1945"
       inkscape:connector-curvature="0"
       sodipodi:nodetypes="cccccccccssssssssssssssscscsscscs" />
    <path
       style="opacity:1;fill:#000aac;fill-opacity:1;fill-rule:nonzero;stroke:#e1e1e1;stroke-width:0.52916665;stroke-linecap:butt;stroke-linejoin:miter;stroke-miterlimit:4;stroke-dasharray:none;stroke-dashoffset:0;stroke-opacity:1;paint-order:markers stroke fill"
       d="m 1.8520834,293.03126 -0.1322917,0.52916 H 0.26458334 l 0.26458332,1.32292 H 1.8520834 l 0.2645833,-1.5875 H 2.38125 v -0.26458 z m -1.19062506,0.79375 H 1.7197917 c 0.07329,0 0.1322917,0.059 0.1322917,0.13229 0,0.0733 -0.059002,0.13229 -0.1322917,0.13229 H 0.66145835 c -0.07329,0 -0.13229169,-0.059 -0.13229169,-0.13229 0,-0.0733 0.059002,-0.13229 0.13229168,-0.13229 z m 0.13229163,0.52916 H 1.5875 c 0.07329,0 0.1322917,0.059 0.1322917,0.13229 0,0.0733 -0.059002,0.1323 -0.1322917,0.1323 H 0.79374997 c -0.07329,0 -0.13229163,-0.059 -0.13229163,-0.1323 0,-0.0733 0.059002,-0.13229 0.13229163,-0.13229 z m 0,0.79375 c -0.14612795,0 -0.26458702,0.11846 -0.26458333,0.26459 1.83e-6,0.14612 0.11845929,0.26458 0.26458333,0.26458 0.14612408,0 0.26458163,-0.11846 0.26458343,-0.26458 3.7e-6,-0.14613 -0.11845545,-0.26459 -0.26458343,-0.26459 z m 0.79375003,0 c -0.1461279,0 -0.264587,0.11846 -0.2645833,0.26459 1.9e-6,0.14612 0.1184593,0.26458 0.2645833,0.26458 0.1461241,0 0.2645816,-0.11846 0.2645834,-0.26458 3.7e-6,-0.14613 -0.1184554,-0.26459 -0.2645834,-0.26459 z"
       id="path840"
       inkscape:connector-curvature="0"
       sodipodi:nodetypes="cccccccccssssssssssssssscscsscscs" />
    <path
       sodipodi:nodetypes="cccccccccssssssssssssssscscsscscs"
       inkscape:connector-curvature="0"
       id="path1943"
       d="m 1.8520834,293.03126 -0.1322917,0.52916 H 0.26458334 l 0.26458332,1.32292 H 1.8520834 l 0.2645833,-1.5875 H 2.38125 v -0.26458 z m -1.19062506,0.79375 H 1.7197917 c 0.07329,0 0.1322917,0.059 0.1322917,0.13229 0,0.0733 -0.059002,0.13229 -0.1322917,0.13229 H 0.66145835 c -0.07329,0 -0.13229169,-0.059 -0.13229169,-0.13229 0,-0.0733 0.059002,-0.13229 0.13229168,-0.13229 z m 0.13229163,0.52916 H 1.5875 c 0.07329,0 0.1322917,0.059 0.1322917,0.13229 0,0.0733 -0.059002,0.1323 -0.1322917,0.1323 H 0.79374997 c -0.07329,0 -0.13229163,-0.059 -0.13229163,-0.1323 0,-0.0733 0.059002,-0.13229 0.13229163,-0.13229 z m 0,0.79375 c -0.14612795,0 -0.26458702,0.11846 -0.26458333,0.26459 1.83e-6,0.14612 0.11845929,0.26458 0.26458333,0.26458 0.14612408,0 0.26458163,-0.11846 0.26458343,-0.26458 3.7e-6,-0.14613 -0.11845545,-0.26459 -0.26458343,-0.26459 z m 0.79375003,0 c -0.1461279,0 -0.264587,0.11846 -0.2645833,0.26459 1.9e-6,0.14612 0.1184593,0.26458 0.2645833,0.26458 0.1461241,0 0.2645816,-0.11846 0.2645834,-0.26458 3.7e-6,-0.14613 -0.1184554,-0.26459 -0.2645834,-0.26459 z"
       style="opacity:1;fill:#000aac;fill-opacity:1;fill-rule:nonzero;stroke:none;stroke-width:0.52916665;stroke-linecap:butt;stroke-linejoin:miter;stroke-miterlimit:4;stroke-dasharray:none;stroke-dashoffset:0;stroke-opacity:1;paint-order:markers stroke fill" />
  </g>
</svg>
