<?xml version="1.0" encoding="UTF-8" standalone="no"?>
<!-- Created with Inkscape (http://www.inkscape.org/) -->

<svg
   xmlns:dc="http://purl.org/dc/elements/1.1/"
   xmlns:cc="http://creativecommons.org/ns#"
   xmlns:rdf="http://www.w3.org/1999/02/22-rdf-syntax-ns#"
   xmlns:svg="http://www.w3.org/2000/svg"
   xmlns="http://www.w3.org/2000/svg"
   xmlns:sodipodi="http://sodipodi.sourceforge.net/DTD/sodipodi-0.dtd"
   xmlns:inkscape="http://www.inkscape.org/namespaces/inkscape"
   width="16"
   height="16"
   viewBox="0 0 4.2333332 4.2333332"
   version="1.1"
   id="svg8"
   inkscape:version="0.92.4 (5da689c313, 2019-01-14)"
   sodipodi:docname="nmiconincart.svg">
  <defs
     id="defs2" />
  <sodipodi:namedview
     id="base"
     pagecolor="#ffffff"
     bordercolor="#666666"
     borderopacity="1.0"
     inkscape:pageopacity="0.0"
     inkscape:pageshadow="2"
     inkscape:zoom="72.4375"
     inkscape:cx="8"
     inkscape:cy="8"
     inkscape:document-units="px"
     inkscape:current-layer="layer1"
     showgrid="true"
     units="px"
     inkscape:window-width="2560"
     inkscape:window-height="1405"
     inkscape:window-x="0"
     inkscape:window-y="35"
     inkscape:window-maximized="1"
     inkscape:snap-global="true"
     inkscape:snap-bbox="true"
     inkscape:bbox-paths="true"
     inkscape:bbox-nodes="true"
     inkscape:snap-bbox-edge-midpoints="true"
     inkscape:snap-bbox-midpoints="true"
     inkscape:snap-object-midpoints="true"
     inkscape:snap-center="true">
    <inkscape:grid
       type="xygrid"
       id="grid815"
       empspacing="8" />
    <inkscape:grid
       type="xygrid"
       id="grid817"
       spacingx="0.13229166"
       spacingy="0.13229166"
       empspacing="2"
       empcolor="#9f00ff"
       empopacity="0.25098039"
       color="#da00ff"
       opacity="0.1254902" />
  </sodipodi:namedview>
  <metadata
     id="metadata5">
    <rdf:RDF>
      <cc:Work
         rdf:about="">
        <dc:format>image/svg+xml</dc:format>
        <dc:type
           rdf:resource="http://purl.org/dc/dcmitype/StillImage" />
        <dc:title></dc:title>
      </cc:Work>
    </rdf:RDF>
  </metadata>
  <g
     inkscape:label="Layer 1"
     inkscape:groupmode="layer"
     id="layer1"
     transform="translate(0,-292.76667)">
    <path
       style="fill:#262eb5;fill-opacity:1;fill-rule:evenodd;stroke:#aaaaaa;stroke-width:1px;stroke-linecap:butt;stroke-linejoin:miter;stroke-opacity:1;paint-order:markers stroke fill"
       d="M 12,1 11.75,3 H 1 l 1,7 8.87798,-10e-8 L 10.62202,12 H 2.9999999 v 1 H 11.5 L 13,2 h 2 V 1 Z M 2.1660156,4 h 2.375 L 4.7089844,6 H 2.5 Z m 3.375,0 H 8.4589844 L 8.2910156,6 H 5.7089844 Z M 9.4589844,4 H 11.625 l -0.25,2 H 9.2910156 Z M 2.6660156,7 h 2.125 L 4.9589844,9 H 3 Z m 3.125,0 H 8.2089844 L 8.0410156,9 H 5.9589844 Z M 9.2089844,7 H 11.25 L 11,9 H 9.0410156 Z"
       transform="matrix(0.26458333,0,0,0.26458333,0,292.76667)"
       id="path820"
       inkscape:connector-curvature="0"
       sodipodi:nodetypes="ccccccccccccccccccccccccccccccccccccccccccc" />
    <path
       sodipodi:nodetypes="ccccccccccccccccccccccccccccccccccccccccccc"
       inkscape:connector-curvature="0"
       id="path850"
       transform="matrix(0.26458333,0,0,0.26458333,0,292.76667)"
       d="M 12,1 11.75,3 H 1 l 1,7 8.87798,-10e-8 L 10.62202,12 H 2.9999999 v 1 H 11.5 L 13,2 h 2 V 1 Z M 2.1660156,4 h 2.375 L 4.7089844,6 H 2.5 Z m 3.375,0 H 8.4589844 L 8.2910156,6 H 5.7089844 Z M 9.4589844,4 H 11.625 l -0.25,2 H 9.2910156 Z M 2.6660156,7 h 2.125 L 4.9589844,9 H 3 Z m 3.125,0 H 8.2089844 L 8.0410156,9 H 5.9589844 Z M 9.2089844,7 H 11.25 L 11,9 H 9.0410156 Z"
       style="fill:#262eb5;fill-opacity:1;fill-rule:evenodd;stroke:none;stroke-width:1px;stroke-linecap:butt;stroke-linejoin:miter;stroke-opacity:1;paint-order:markers stroke fill" />
    <g
       id="g866">
      <circle
         r="0.26458332"
         cy="296.47083"
         cx="2.9104166"
         id="path848"
         style="opacity:1;vector-effect:none;fill:#262eb5;fill-opacity:1;stroke:#aaaaaa;stroke-width:0.26458332;stroke-linecap:round;stroke-linejoin:bevel;stroke-miterlimit:4;stroke-dasharray:none;stroke-dashoffset:0;stroke-opacity:1;paint-order:markers stroke fill" />
      <g
         id="g859">
        <circle
           style="opacity:1;vector-effect:none;fill:#262eb5;fill-opacity:1;stroke:#aaaaaa;stroke-width:0.26458332;stroke-linecap:round;stroke-linejoin:bevel;stroke-miterlimit:4;stroke-dasharray:none;stroke-dashoffset:0;stroke-opacity:1;paint-order:markers stroke fill"
           id="path846"
           cx="0.79374999"
           cy="296.47083"
           r="0.26458332" />
        <circle
           r="0.26458332"
           cy="296.47083"
           cx="0.79374999"
           id="circle852"
           style="opacity:1;vector-effect:none;fill:#262eb5;fill-opacity:1;stroke:none;stroke-width:0.26458332;stroke-linecap:round;stroke-linejoin:bevel;stroke-miterlimit:4;stroke-dasharray:none;stroke-dashoffset:0;stroke-opacity:1;paint-order:markers stroke fill" />
        <circle
           r="0.26458332"
           cy="296.47083"
           cx="2.9104166"
           id="circle854"
           style="opacity:1;vector-effect:none;fill:#262eb5;fill-opacity:1;stroke:none;stroke-width:0.26458332;stroke-linecap:round;stroke-linejoin:bevel;stroke-miterlimit:4;stroke-dasharray:none;stroke-dashoffset:0;stroke-opacity:1;paint-order:markers stroke fill" />
      </g>
    </g>
  </g>
</svg>
