<?xml version="1.0" encoding="UTF-8" standalone="no"?>
<!-- Created with Inkscape (http://www.inkscape.org/) -->

<svg
   xmlns:dc="http://purl.org/dc/elements/1.1/"
   xmlns:cc="http://creativecommons.org/ns#"
   xmlns:rdf="http://www.w3.org/1999/02/22-rdf-syntax-ns#"
   xmlns:svg="http://www.w3.org/2000/svg"
   xmlns="http://www.w3.org/2000/svg"
   xmlns:xlink="http://www.w3.org/1999/xlink"
   xmlns:sodipodi="http://sodipodi.sourceforge.net/DTD/sodipodi-0.dtd"
   xmlns:inkscape="http://www.inkscape.org/namespaces/inkscape"
   width="16"
   height="16"
   viewBox="0 0 4.2333332 4.2333332"
   version="1.1"
   id="svg8"
   inkscape:version="0.92.4 (5da689c313, 2019-01-14)"
   sodipodi:docname="nmicon_p3.svg">
  <defs
     id="defs2">
    <linearGradient
       inkscape:collect="always"
       xlink:href="#linearGradient2711"
       id="linearGradient2713"
       x1="3"
       y1="9.5"
       x2="13"
       y2="9.5"
       gradientUnits="userSpaceOnUse"
       gradientTransform="translate(0,3.0000379)" />
    <linearGradient
       inkscape:collect="always"
       id="linearGradient2711">
      <stop
         style="stop-color:#e3e000;stop-opacity:1"
         offset="0"
         id="stop2707" />
      <stop
         id="stop2715"
         offset="0.19999999"
         style="stop-color:#ffe404;stop-opacity:1" />
      <stop
         style="stop-color:#ac8800;stop-opacity:1"
         offset="1"
         id="stop2709" />
    </linearGradient>
    <linearGradient
       inkscape:collect="always"
       xlink:href="#linearGradient2711"
       id="linearGradient3692"
       gradientUnits="userSpaceOnUse"
       gradientTransform="translate(0,3.0000379)"
       x1="3"
       y1="9.5"
       x2="13"
       y2="9.5" />
    <linearGradient
       inkscape:collect="always"
       xlink:href="#linearGradient2711"
       id="linearGradient3700"
       gradientUnits="userSpaceOnUse"
       gradientTransform="translate(0,3.0000379)"
       x1="3"
       y1="9.5"
       x2="13"
       y2="9.5" />
    <linearGradient
       inkscape:collect="always"
       xlink:href="#linearGradient2711"
       id="linearGradient3708"
       gradientUnits="userSpaceOnUse"
       gradientTransform="translate(0,3.0000379)"
       x1="3"
       y1="9.5"
       x2="13"
       y2="9.5" />
  </defs>
  <sodipodi:namedview
     id="base"
     pagecolor="#ffffff"
     bordercolor="#666666"
     borderopacity="1.0"
     inkscape:pageopacity="0.0"
     inkscape:pageshadow="2"
     inkscape:zoom="54.4375"
     inkscape:cx="8"
     inkscape:cy="8"
     inkscape:document-units="px"
     inkscape:current-layer="layer1"
     showgrid="true"
     units="px"
     inkscape:window-width="1920"
     inkscape:window-height="1051"
     inkscape:window-x="1280"
     inkscape:window-y="29"
     inkscape:window-maximized="1"
     inkscape:snap-bbox="true"
     inkscape:bbox-paths="true"
     inkscape:bbox-nodes="true"
     inkscape:snap-bbox-edge-midpoints="true"
     inkscape:snap-bbox-midpoints="true">
    <inkscape:grid
       type="xygrid"
       id="grid815"
       empspacing="8" />
    <inkscape:grid
       type="xygrid"
       id="grid817"
       spacingx="0.13229166"
       spacingy="0.13229166"
       empspacing="2"
       empcolor="#9f00ff"
       empopacity="0.25098039"
       color="#da00ff"
       opacity="0.1254902" />
  </sodipodi:namedview>
  <metadata
     id="metadata5">
    <rdf:RDF>
      <cc:Work
         rdf:about="">
        <dc:format>image/svg+xml</dc:format>
        <dc:type
           rdf:resource="http://purl.org/dc/dcmitype/StillImage" />
        <dc:title />
      </cc:Work>
    </rdf:RDF>
  </metadata>
  <g
     inkscape:label="Layer 1"
     inkscape:groupmode="layer"
     id="layer1"
     transform="translate(0,-292.76667)">
    <g
       transform="translate(0,-0.52917008)"
       id="g2607"
       style="fill:#c3c3c3;stroke:#969696;stroke-width:0.52916664;stroke-miterlimit:4;stroke-dasharray:none;stroke-opacity:1;fill-opacity:1">
      <path
         sodipodi:nodetypes="sssssss"
         inkscape:connector-curvature="0"
         id="path2605"
         transform="matrix(0.26458333,0,0,0.26458333,0,293.29584)"
         d="m 8,2.0000001 c -2.7614238,0 -6,0.4477152 -6,1 V 13 c 0,0.552285 3.2385762,1 6,1 2.761424,0 6,-0.447715 6,-1 V 3.0000001 c 0,-0.5522848 -3.238576,-1 -6,-1 z"
         style="opacity:1;fill:#c3c3c3;fill-opacity:1;fill-rule:nonzero;stroke:#969696;stroke-width:2;stroke-linecap:butt;stroke-linejoin:round;stroke-miterlimit:4;stroke-dasharray:none;stroke-dashoffset:0;stroke-opacity:1;paint-order:markers stroke fill" />
    </g>
    <g
       transform="matrix(1.168913,0,0,1.085823,-0.36430601,-26.02696)"
       id="g2603"
       style="fill:none;stroke:#555555;stroke-width:0.52916664;stroke-miterlimit:4;stroke-dasharray:none;stroke-opacity:1" />
    <g
       id="g3532">
      <path
         inkscape:connector-curvature="0"
         id="ellipse2702"
         transform="matrix(0.26458333,0,0,0.26458333,0,292.76667)"
         d="m 8,10 a 5.9999996,0.99999998 0 0 0 -6,1 v 2 c -6.97e-5,0.552302 3.238527,1 6,1 2.761473,0 6.00007,-0.447698 6,-1 V 11 A 5.9999996,0.99999998 0 0 0 8,10 Z"
         style="opacity:1;fill:url(#linearGradient2713);fill-opacity:1;fill-rule:nonzero;stroke:#120c00;stroke-width:0.5;stroke-linecap:butt;stroke-linejoin:round;stroke-miterlimit:4;stroke-dasharray:none;stroke-dashoffset:0;stroke-opacity:1;paint-order:markers stroke fill" />
      <ellipse
         style="opacity:1;fill:#fffb04;fill-opacity:1;fill-rule:nonzero;stroke:none;stroke-width:0.13229166;stroke-linecap:butt;stroke-linejoin:round;stroke-miterlimit:4;stroke-dasharray:none;stroke-dashoffset:0;stroke-opacity:1;paint-order:markers stroke fill"
         id="ellipse3527"
         cx="2.1166666"
         cy="295.67709"
         rx="1.5874999"
         ry="0.26458332" />
    </g>
    <g
       id="g3690"
       transform="translate(0,-0.52916664)">
      <path
         style="opacity:1;fill:url(#linearGradient3692);fill-opacity:1;fill-rule:nonzero;stroke:#120c00;stroke-width:0.5;stroke-linecap:butt;stroke-linejoin:round;stroke-miterlimit:4;stroke-dasharray:none;stroke-dashoffset:0;stroke-opacity:1;paint-order:markers stroke fill"
         d="m 8,10 a 5.9999996,0.99999998 0 0 0 -6,1 v 2 c -6.97e-5,0.552302 3.238527,1 6,1 2.761473,0 6.00007,-0.447698 6,-1 V 11 A 5.9999996,0.99999998 0 0 0 8,10 Z"
         transform="matrix(0.26458333,0,0,0.26458333,0,292.76667)"
         id="path3686"
         inkscape:connector-curvature="0" />
      <ellipse
         ry="0.26458332"
         rx="1.5874999"
         cy="295.67709"
         cx="2.1166666"
         id="ellipse3688"
         style="opacity:1;fill:#fffb04;fill-opacity:1;fill-rule:nonzero;stroke:none;stroke-width:0.13229166;stroke-linecap:butt;stroke-linejoin:round;stroke-miterlimit:4;stroke-dasharray:none;stroke-dashoffset:0;stroke-opacity:1;paint-order:markers stroke fill" />
    </g>
    <g
       transform="translate(0,-1.0583333)"
       id="g3698">
      <path
         inkscape:connector-curvature="0"
         id="path3694"
         transform="matrix(0.26458333,0,0,0.26458333,0,292.76667)"
         d="m 8,10 a 5.9999996,0.99999998 0 0 0 -6,1 v 2 c -6.97e-5,0.552302 3.238527,1 6,1 2.761473,0 6.00007,-0.447698 6,-1 V 11 A 5.9999996,0.99999998 0 0 0 8,10 Z"
         style="opacity:1;fill:url(#linearGradient3700);fill-opacity:1;fill-rule:nonzero;stroke:#120c00;stroke-width:0.5;stroke-linecap:butt;stroke-linejoin:round;stroke-miterlimit:4;stroke-dasharray:none;stroke-dashoffset:0;stroke-opacity:1;paint-order:markers stroke fill" />
      <ellipse
         style="opacity:1;fill:#fffb04;fill-opacity:1;fill-rule:nonzero;stroke:none;stroke-width:0.13229166;stroke-linecap:butt;stroke-linejoin:round;stroke-miterlimit:4;stroke-dasharray:none;stroke-dashoffset:0;stroke-opacity:1;paint-order:markers stroke fill"
         id="ellipse3696"
         cx="2.1166666"
         cy="295.67709"
         rx="1.5874999"
         ry="0.26458332" />
    </g>
    <g
       id="g3706"
       transform="translate(0,-1.5874999)">
      <path
         style="opacity:1;fill:url(#linearGradient3708);fill-opacity:1;fill-rule:nonzero;stroke:#120c00;stroke-width:0.5;stroke-linecap:butt;stroke-linejoin:round;stroke-miterlimit:4;stroke-dasharray:none;stroke-dashoffset:0;stroke-opacity:1;paint-order:markers stroke fill"
         d="m 8,10 a 5.9999996,0.99999998 0 0 0 -6,1 v 2 c -6.97e-5,0.552302 3.238527,1 6,1 2.761473,0 6.00007,-0.447698 6,-1 V 11 A 5.9999996,0.99999998 0 0 0 8,10 Z"
         transform="matrix(0.26458333,0,0,0.26458333,0,292.76667)"
         id="path3702"
         inkscape:connector-curvature="0" />
      <ellipse
         ry="0.26458332"
         rx="1.5874999"
         cy="295.67709"
         cx="2.1166666"
         id="ellipse3704"
         style="opacity:1;fill:#fffb04;fill-opacity:1;fill-rule:nonzero;stroke:none;stroke-width:0.13229166;stroke-linecap:butt;stroke-linejoin:round;stroke-miterlimit:4;stroke-dasharray:none;stroke-dashoffset:0;stroke-opacity:1;paint-order:markers stroke fill" />
    </g>
  </g>
</svg>
